<svg width="1069" height="86" viewBox="0 0 1069 86" fill="none" xmlns="http://www.w3.org/2000/svg">
<g filter="url(#filter0_d_4_74)">
<path d="M43.92 64H4.055V3.48H43.92V14.02H15.87V28.215H39.755V38.755H15.87V53.46H43.92V64ZM91.4748 64H80.4248V37.225C80.4248 31.19 76.5998 29.15 73.1148 29.15C69.6298 29.15 65.7198 31.19 65.7198 37.225V64H54.6698V19.715H65.4648V23.795C68.3548 20.735 72.4348 19.205 76.5148 19.205C80.9348 19.205 84.5048 20.65 86.9698 23.115C90.5398 26.685 91.4748 30.85 91.4748 35.695V64ZM139.775 45.3H112.065C112.065 51.08 115.465 55.16 121.755 55.16C126.6 55.16 128.98 53.715 131.785 50.995L138.5 57.54C133.995 62.13 129.66 64.51 121.67 64.51C111.215 64.51 101.185 59.75 101.185 41.815C101.185 27.365 109.005 19.205 120.48 19.205C132.805 19.205 139.775 28.045 139.775 40.625V45.3ZM128.895 37.735C128.81 35.78 128.64 34.59 127.875 32.975C126.685 30.34 124.22 28.385 120.48 28.385C116.74 28.385 114.275 30.34 113.085 32.975C112.32 34.59 112.15 35.78 112.065 37.735H128.895ZM182.348 23.37L174.018 31.785C172.318 30.085 170.873 29.15 168.153 29.15C164.753 29.15 161.013 31.7 161.013 37.31V64H149.963V19.715H160.758V23.965C162.883 21.415 167.133 19.205 171.893 19.205C176.228 19.205 179.288 20.31 182.348 23.37ZM220.836 62.385C220.836 73.01 213.271 80.745 201.371 80.745C194.571 80.745 189.896 79.385 185.306 74.965L192.191 67.995C194.656 70.375 197.121 71.395 200.861 71.395C207.491 71.395 209.786 66.72 209.786 62.215V57.71C206.896 60.94 203.581 62.13 199.246 62.13C194.911 62.13 191.171 60.685 188.706 58.22C184.541 54.055 184.201 48.36 184.201 40.625C184.201 32.89 184.541 27.28 188.706 23.115C191.171 20.65 194.996 19.205 199.331 19.205C204.006 19.205 207.066 20.48 210.126 23.88V19.715H220.836V62.385ZM209.786 40.625C209.786 34.76 209.021 29.15 202.476 29.15C195.931 29.15 195.251 34.76 195.251 40.625C195.251 46.49 195.931 52.185 202.476 52.185C209.021 52.185 209.786 46.49 209.786 40.625ZM244.27 64H233.22V20.99H244.27V64ZM244.355 12.15H233.05V3.14H244.355V12.15ZM289.948 50.06C289.948 59.835 281.618 64.51 271.163 64.51C264.193 64.51 257.988 63.745 252.293 58.135L259.518 50.91C263.088 54.565 267.933 55.075 271.333 55.075C275.158 55.075 279.153 53.8 279.153 50.485C279.153 48.275 278.048 46.745 274.478 46.405L267.338 45.725C259.518 44.96 254.588 41.475 254.588 33.315C254.588 24.05 262.663 19.205 271.673 19.205C278.643 19.205 284.338 20.48 288.588 24.39L281.788 31.275C279.238 28.98 275.413 28.3 271.503 28.3C267.083 28.3 265.213 30.34 265.213 32.55C265.213 34.76 266.488 36.035 269.803 36.375L276.773 37.055C285.528 37.905 289.948 42.495 289.948 50.06ZM335.591 45.3H307.881C307.881 51.08 311.281 55.16 317.571 55.16C322.416 55.16 324.796 53.715 327.601 50.995L334.316 57.54C329.811 62.13 325.476 64.51 317.486 64.51C307.031 64.51 297.001 59.75 297.001 41.815C297.001 27.365 304.821 19.205 316.296 19.205C328.621 19.205 335.591 28.045 335.591 40.625V45.3ZM324.711 37.735C324.626 35.78 324.456 34.59 323.691 32.975C322.501 30.34 320.036 28.385 316.296 28.385C312.556 28.385 310.091 30.34 308.901 32.975C308.136 34.59 307.966 35.78 307.881 37.735H324.711ZM381.053 64H370.258V59.835C367.198 63.235 363.968 64.51 359.293 64.51C354.873 64.51 350.963 63.065 348.498 60.515C344.248 56.18 343.908 49.295 343.908 41.815C343.908 34.42 344.248 27.535 348.498 23.2C350.963 20.65 354.788 19.205 359.208 19.205C363.713 19.205 367.113 20.395 370.003 23.625V3.48H381.053V64ZM370.003 41.815C370.003 34.675 369.068 29.15 362.438 29.15C355.808 29.15 354.958 34.675 354.958 41.815C354.958 48.955 355.808 54.565 362.438 54.565C369.068 54.565 370.003 48.955 370.003 41.815ZM453.301 64H414.031V3.48H425.846V53.46H453.301V64ZM498.452 45.3H470.742C470.742 51.08 474.142 55.16 480.432 55.16C485.277 55.16 487.657 53.715 490.462 50.995L497.177 57.54C492.672 62.13 488.337 64.51 480.347 64.51C469.892 64.51 459.862 59.75 459.862 41.815C459.862 27.365 467.682 19.205 479.157 19.205C491.482 19.205 498.452 28.045 498.452 40.625V45.3ZM487.572 37.735C487.487 35.78 487.317 34.59 486.552 32.975C485.362 30.34 482.897 28.385 479.157 28.385C475.417 28.385 472.952 30.34 471.762 32.975C470.997 34.59 470.827 35.78 470.742 37.735H487.572ZM542.13 64H531.335V60.175C528.36 63.15 525.555 64.425 520.455 64.425C515.44 64.425 511.7 63.065 509.15 60.515C506.77 58.05 505.495 54.48 505.495 50.57C505.495 43.515 510.34 37.735 520.795 37.735H531.08V35.525C531.08 30.68 528.7 28.555 522.835 28.555C518.84 28.555 516.715 29.66 514.335 32.38L507.365 25.495C511.7 20.735 515.865 19.205 523.26 19.205C535.755 19.205 542.13 24.475 542.13 34.845V64ZM531.08 47.68V45.3H522.665C518.245 45.3 516.12 47.085 516.12 50.4C516.12 53.46 518.245 55.415 522.835 55.415C525.555 55.415 527.51 55.075 529.38 53.29C530.655 52.185 531.08 50.485 531.08 47.68ZM589.32 64H578.525V59.835C575.465 63.235 572.235 64.51 567.56 64.51C563.14 64.51 559.23 63.065 556.765 60.515C552.515 56.18 552.175 49.295 552.175 41.815C552.175 34.42 552.515 27.535 556.765 23.2C559.23 20.65 563.055 19.205 567.475 19.205C571.98 19.205 575.38 20.395 578.27 23.625V3.48H589.32V64ZM578.27 41.815C578.27 34.675 577.335 29.15 570.705 29.15C564.075 29.15 563.225 34.675 563.225 41.815C563.225 48.955 564.075 54.565 570.705 54.565C577.335 54.565 578.27 48.955 578.27 41.815ZM638.071 45.3H610.361C610.361 51.08 613.761 55.16 620.051 55.16C624.896 55.16 627.276 53.715 630.081 50.995L636.796 57.54C632.291 62.13 627.956 64.51 619.966 64.51C609.511 64.51 599.481 59.75 599.481 41.815C599.481 27.365 607.301 19.205 618.776 19.205C631.101 19.205 638.071 28.045 638.071 40.625V45.3ZM627.191 37.735C627.106 35.78 626.936 34.59 626.171 32.975C624.981 30.34 622.516 28.385 618.776 28.385C615.036 28.385 612.571 30.34 611.381 32.975C610.616 34.59 610.446 35.78 610.361 37.735H627.191ZM680.644 23.37L672.314 31.785C670.614 30.085 669.169 29.15 666.449 29.15C663.049 29.15 659.309 31.7 659.309 37.31V64H648.259V19.715H659.054V23.965C661.179 21.415 665.429 19.205 670.189 19.205C674.524 19.205 677.584 20.31 680.644 23.37ZM719.43 50.06C719.43 59.835 711.1 64.51 700.645 64.51C693.675 64.51 687.47 63.745 681.775 58.135L689 50.91C692.57 54.565 697.415 55.075 700.815 55.075C704.64 55.075 708.635 53.8 708.635 50.485C708.635 48.275 707.53 46.745 703.96 46.405L696.82 45.725C689 44.96 684.07 41.475 684.07 33.315C684.07 24.05 692.145 19.205 701.155 19.205C708.125 19.205 713.82 20.48 718.07 24.39L711.27 31.275C708.72 28.98 704.895 28.3 700.985 28.3C696.565 28.3 694.695 30.34 694.695 32.55C694.695 34.76 695.97 36.035 699.285 36.375L706.255 37.055C715.01 37.905 719.43 42.495 719.43 50.06ZM765.498 64H754.448V37.225C754.448 31.19 750.623 29.15 747.138 29.15C743.653 29.15 739.743 31.19 739.743 37.225V64H728.693V3.48H739.743V23.795C742.548 20.735 746.288 19.205 750.538 19.205C754.958 19.205 758.528 20.65 760.993 23.115C764.563 26.685 765.498 30.85 765.498 35.695V64ZM788.469 64H777.419V20.99H788.469V64ZM788.554 12.15H777.249V3.14H788.554V12.15ZM837.887 41.815C837.887 49.21 837.547 56.18 833.297 60.515C830.832 63.065 826.922 64.51 822.587 64.51C818.082 64.51 814.682 63.32 811.877 60.09V80.235H800.827V19.715H811.537V23.88C814.597 20.48 817.827 19.205 822.587 19.205C826.922 19.205 830.832 20.65 833.297 23.2C837.547 27.535 837.887 34.42 837.887 41.815ZM826.837 41.815C826.837 34.675 825.987 29.15 819.357 29.15C812.727 29.15 811.877 34.675 811.877 41.815C811.877 48.955 812.727 54.565 819.357 54.565C825.987 54.565 826.837 48.955 826.837 41.815ZM907.926 14.02H892.116V64H880.301V14.02H864.491V3.48H907.926V14.02ZM946.279 45.3H918.569C918.569 51.08 921.969 55.16 928.259 55.16C933.104 55.16 935.484 53.715 938.289 50.995L945.004 57.54C940.499 62.13 936.164 64.51 928.174 64.51C917.719 64.51 907.689 59.75 907.689 41.815C907.689 27.365 915.509 19.205 926.984 19.205C939.309 19.205 946.279 28.045 946.279 40.625V45.3ZM935.399 37.735C935.314 35.78 935.144 34.59 934.379 32.975C933.189 30.34 930.724 28.385 926.984 28.385C923.244 28.385 920.779 30.34 919.589 32.975C918.824 34.59 918.654 35.78 918.569 37.735H935.399ZM989.957 64H979.162V60.175C976.187 63.15 973.382 64.425 968.282 64.425C963.267 64.425 959.527 63.065 956.977 60.515C954.597 58.05 953.322 54.48 953.322 50.57C953.322 43.515 958.167 37.735 968.622 37.735H978.907V35.525C978.907 30.68 976.527 28.555 970.662 28.555C966.667 28.555 964.542 29.66 962.162 32.38L955.192 25.495C959.527 20.735 963.692 19.205 971.087 19.205C983.582 19.205 989.957 24.475 989.957 34.845V64ZM978.907 47.68V45.3H970.492C966.072 45.3 963.947 47.085 963.947 50.4C963.947 53.46 966.072 55.415 970.662 55.415C973.382 55.415 975.337 55.075 977.207 53.29C978.482 52.185 978.907 50.485 978.907 47.68ZM1064.43 64H1053.38V37.225C1053.38 31.19 1049.56 29.15 1046.07 29.15C1042.67 29.15 1038.68 31.19 1038.68 36.97V64H1027.63V37.225C1027.63 31.19 1023.8 29.15 1020.32 29.15C1016.83 29.15 1012.92 31.19 1012.92 37.225V64H1001.87V19.715H1012.67V23.795C1015.56 20.82 1019.64 19.205 1023.72 19.205C1028.65 19.205 1032.64 20.99 1035.45 24.815C1039.19 20.905 1043.18 19.205 1048.71 19.205C1053.13 19.205 1057.12 20.65 1059.59 23.115C1063.16 26.685 1064.43 30.85 1064.43 35.695V64Z" fill="url(#paint0_linear_4_74)"/>
</g>
<defs>
<filter id="filter0_d_4_74" x="0.0549927" y="0.139893" width="1068.38" height="85.6052" filterUnits="userSpaceOnUse" color-interpolation-filters="sRGB">
<feFlood flood-opacity="0" result="BackgroundImageFix"/>
<feColorMatrix in="SourceAlpha" type="matrix" values="0 0 0 0 0 0 0 0 0 0 0 0 0 0 0 0 0 0 127 0" result="hardAlpha"/>
<feOffset dy="1"/>
<feGaussianBlur stdDeviation="2"/>
<feComposite in2="hardAlpha" operator="out"/>
<feColorMatrix type="matrix" values="0 0 0 0 0 0 0 0 0 0 0 0 0 0 0 0 0 0 0.15 0"/>
<feBlend mode="normal" in2="BackgroundImageFix" result="effect1_dropShadow_4_74"/>
<feBlend mode="normal" in="SourceGraphic" in2="effect1_dropShadow_4_74" result="shape"/>
</filter>
<linearGradient id="paint0_linear_4_74" x1="-3" y1="30" x2="1071" y2="30" gradientUnits="userSpaceOnUse">
<stop stop-color="#8BB624"/>
<stop offset="1" stop-color="#076CCC"/>
</linearGradient>
</defs>
</svg>
