<?xml version="1.0" encoding="UTF-8"?>
<svg id="Layer_1" data-name="Layer 1" xmlns="http://www.w3.org/2000/svg" version="1.1" viewBox="0 0 228.6 230">
  <defs>
    <style>
      .cls-1 {
        fill: #414042;
      }

      .cls-1, .cls-2 {
        stroke-width: 0px;
      }

      .cls-2 {
        fill: #fff;
      }
    </style>
  </defs>
  <path class="cls-1" d="M114.3,230c63.1,0,114.3-51.5,114.3-115S177.4,0,114.3,0,0,51.5,0,115s51.2,115,114.3,115"/>
  <path class="cls-2" d="M53.1,95.4h13.7c.9,0,1.6-.7,1.6-1.6v-1.9l11.6,10.5-11.6,10.5v-1.9c0-.9-.7-1.6-1.6-1.6h-13.7v-14.1h0ZM51.5,112.6h13.7v3.9c0,.6.4,1.2.9,1.4.2,0,.4.1.6.1.4,0,.8-.1,1-.4l15.5-14.1c.3-.3.5-.7.5-1.2s-.2-.9-.5-1.2l-15.5-14.1c-.5-.4-1.1-.5-1.7-.3-.6.2-.9.8-.9,1.4v3.9h-13.7c-.9,0-1.6.7-1.6,1.6v17.2c0,.9.7,1.6,1.6,1.6"/>
  <path class="cls-2" d="M53.1,59.3h29.4c.9,0,1.6-.7,1.6-1.6v-1.9l11.6,10.5-11.6,10.5v-1.9c0-.9-.7-1.6-1.6-1.6h-29.4v-14.1h0ZM51.5,76.5h29.4v3.9c0,.6.4,1.2.9,1.4.2,0,.4.1.6.1.4,0,.8-.1,1-.4l15.5-14.1c.3-.3.5-.7.5-1.2s-.2-.9-.5-1.2l-15.5-14.1c-.5-.4-1.1-.5-1.7-.3-.6.2-.9.8-.9,1.4v3.9h-29.4c-.9,0-1.6.7-1.6,1.6v17.2c0,.9.7,1.6,1.6,1.6"/>
  <path class="cls-2" d="M135.6,168.6c-2.6,0-4.7-2.1-4.7-4.7s2.1-4.7,4.7-4.7,4.7,2.1,4.7,4.7-2.1,4.7-4.7,4.7M135.6,156c-4.3,0-7.8,3.5-7.8,7.8s3.5,7.8,7.8,7.8,7.8-3.5,7.8-7.8-3.5-7.8-7.8-7.8"/>
  <path class="cls-2" d="M156.9,168.6c-2.6,0-4.7-2.1-4.7-4.7s2.1-4.7,4.7-4.7,4.7,2.1,4.7,4.7-2.1,4.7-4.7,4.7M156.9,156c-4.3,0-7.8,3.5-7.8,7.8s3.5,7.8,7.8,7.8,7.8-3.5,7.8-7.8-3.5-7.8-7.8-7.8"/>
  <path class="cls-2" d="M163.2,176.2h-97.7c-6.8,0-12.4-5.5-12.4-12.4s5.5-12.4,12.4-12.4h97.7c6.8,0,12.4,5.5,12.4,12.4s-5.5,12.4-12.4,12.4M94.6,115.2v7.5c0,.9.7,1.6,1.6,1.6s1.6-.7,1.6-1.6v-7.5h15v33.2h-33.1v-33.1h15ZM97.7,78.9h15v7.5c0,.9.7,1.6,1.6,1.6s1.6-.7,1.6-1.6v-7.5h15v33.1h-33.1v-33.1h0ZM133.8,76.6h0c2.3-1.2,4.8-1.8,7.3-1.8,8.8,0,16,7.2,16,16s-7.2,16-16,16-4.9-.6-7.1-1.7v-27.7c0-.3,0-.5-.2-.8M132.5,124.3c.9,0,1.6-.7,1.6-1.6v-7.5h15v33.1h-33.1v-33.1h15v7.5c0,.9.7,1.6,1.6,1.6M107.1,75.8h0l4-6.9c.7-1.2,2.3-1.6,3.5-.9l4.4,2.5c.6.4,1.4.2,1.9-.2,3.5-3.5,7.9-6,12.6-7.3.7-.2,1.2-.8,1.2-1.5v-5.1c0-1.4,1.2-2.6,2.6-2.6h8c1.4,0,2.6,1.1,2.6,2.6v5.1c0,.7.5,1.3,1.2,1.5,4.7,1.3,9.1,3.8,12.6,7.3.5.5,1.3.6,1.9.2l4.4-2.5c.6-.3,1.3-.4,1.9-.2.7.2,1.2.6,1.6,1.2l4,6.9c.7,1.2.3,2.8-.9,3.5l-4.4,2.5c-.6.4-.9,1.1-.7,1.8.6,2.4.9,4.8.9,7.3s-.3,4.9-.9,7.3c-.2.7.1,1.4.7,1.8l4.4,2.5c1.2.7,1.6,2.3.9,3.5l-4,6.9c-.3.6-.9,1-1.6,1.2s-1.3,0-1.9-.2l-4.4-2.5c-.6-.4-1.4-.3-1.9.2-2.7,2.6-5.8,4.7-9.3,6.1v-3.8c0-.9-.7-1.6-1.6-1.6h-16.6v-3.5c2.3.9,4.7,1.4,7.1,1.4,10.6,0,19.1-8.6,19.1-19.1s-8.6-19.1-19.1-19.1-8.5,1.5-11.9,4.1h-22.2s0,0,0,0M163.2,148.4h0-11s0-27.5,0-27.5c3.9-1.4,7.5-3.6,10.6-6.4l3.4,2c1.3.8,2.8,1,4.3.6,1.5-.4,2.7-1.3,3.5-2.6l4-6.9c1.6-2.7.6-6.2-2.1-7.8l-3.4-2c.5-2.3.8-4.6.8-6.9s-.2-4.6-.8-6.9l3.4-2c2.7-1.6,3.7-5.1,2.1-7.8l-4-6.9c-.8-1.3-2-2.3-3.5-2.6-1.5-.4-3-.2-4.3.5l-3.4,2c-3.4-3.1-7.5-5.5-11.9-6.9v-3.9c0-3.1-2.5-5.7-5.7-5.7h-7.9c-3.2,0-5.7,2.6-5.7,5.7v3.9c-4.4,1.4-8.5,3.8-11.9,6.9l-3.4-2c-2.7-1.6-6.2-.6-7.8,2.1l-4,6.9c-.3.5-.5,1.1-.6,1.6h-7.6c-.9,0-1.6.7-1.6,1.6v34.7h-16.6c-.9,0-1.6.7-1.6,1.6v34.7h-11c-8.5,0-15.5,7-15.5,15.5s7,15.5,15.5,15.5h97.7c8.5,0,15.5-7,15.5-15.5s-7-15.5-15.5-15.5"/>
  <path class="cls-2" d="M71.7,168.6c-2.6,0-4.7-2.1-4.7-4.7s2.1-4.7,4.7-4.7,4.7,2.1,4.7,4.7-2.1,4.7-4.7,4.7M71.7,156c-4.3,0-7.8,3.5-7.8,7.8s3.5,7.8,7.8,7.8,7.8-3.5,7.8-7.8-3.5-7.8-7.8-7.8"/>
  <path class="cls-2" d="M114.3,168.6c-2.6,0-4.7-2.1-4.7-4.7s2.1-4.7,4.7-4.7,4.7,2.1,4.7,4.7-2.1,4.7-4.7,4.7M114.3,156c-4.3,0-7.8,3.5-7.8,7.8s3.5,7.8,7.8,7.8,7.8-3.5,7.8-7.8-3.5-7.8-7.8-7.8"/>
  <path class="cls-2" d="M93,168.6c-2.6,0-4.7-2.1-4.7-4.7s2.1-4.7,4.7-4.7,4.7,2.1,4.7,4.7-2.1,4.7-4.7,4.7M93,156c-4.3,0-7.8,3.5-7.8,7.8s3.5,7.8,7.8,7.8,7.8-3.5,7.8-7.8-3.5-7.8-7.8-7.8"/>
</svg>