<?xml version="1.0" encoding="UTF-8"?>
<svg id="Layer_1" data-name="Layer 1" xmlns="http://www.w3.org/2000/svg" version="1.1" viewBox="0 0 238.1 239.5">
  <defs>
    <style>
      .cls-1 {
        fill: #414042;
      }

      .cls-1, .cls-2 {
        stroke-width: 0px;
      }

      .cls-2 {
        fill: #fff;
      }
    </style>
  </defs>
  <path class="cls-2" d="M176.7,159.5c0,.4-.3.8-.8.8h-6.2c-.4,0-.8-.3-.8-.8v-3.1c0-.4.3-.8.8-.8h6.2c.4,0,.8.3.8.8v3.1ZM175.9,151h-6.2c-3,0-5.4,2.4-5.4,5.4v3.1c0,3,2.4,5.4,5.4,5.4h6.2c3,0,5.4-2.4,5.4-5.4v-3.1c0-3-2.4-5.4-5.4-5.4"/>
  <g>
    <path class="cls-1" d="M119.1,239.5c65.8,0,119.1-53.6,119.1-119.8S184.8,0,119.1,0,0,53.6,0,119.8s53.3,119.8,119.1,119.8"/>
    <path class="cls-2" d="M189.4,183.5h-64.7c-2.1,0-3.9-1.7-3.9-3.8v-46.2c0-2.1,1.7-3.8,3.9-3.8h27.4c.8,0,1.6-.5,2-1.2,4.2-8,2.8-17.6,1.4-22.9,8.9,3.3,12.5,12.6,13.9,19.5h-3.4c-1.3,0-2.3,1-2.3,2.3s1,2.3,2.3,2.3h23.3c2.1,0,3.8,1.7,3.8,3.9v46.2c0,2.1-1.7,3.8-3.8,3.8M189.4,125h-15.3c-1.8-9.2-6.9-22.8-21.7-25.1-.8-.1-1.6.2-2.2.9-.5.6-.6,1.5-.3,2.3,0,.1,4.8,12.5.7,21.9h-25.9c-4.7,0-8.5,3.8-8.5,8.5v46.2c0,4.7,3.8,8.5,8.5,8.5h64.7c4.7,0,8.5-3.8,8.5-8.5v-46.2c0-4.7-3.8-8.5-8.5-8.5"/>
    <path class="cls-2" d="M186.3,174.2h-58.5c-1.3,0-2.3,1-2.3,2.3s1,2.3,2.3,2.3h58.5c1.3,0,2.3-1,2.3-2.3s-1-2.3-2.3-2.3"/>
    <path class="cls-2" d="M186.3,163.5h-58.5c-1.3,0-2.3,1-2.3,2.3s1,2.3,2.3,2.3h58.5c1.3,0,2.3-1,2.3-2.3s-1-2.3-2.3-2.3"/>
    <path class="cls-2" d="M186.3,152.7h-46.2c-1.3,0-2.3,1-2.3,2.3s1,2.3,2.3,2.3h46.2c1.3,0,2.3-1,2.3-2.3s-1-2.3-2.3-2.3"/>
    <path class="cls-2" d="M127.8,157.3h3.1c1.3,0,2.3-1,2.3-2.3s-1-2.3-2.3-2.3h-3.1c-1.3,0-2.3,1-2.3,2.3s1,2.3,2.3,2.3"/>
    <path class="cls-2" d="M130.1,139.6c0-.4.4-.8.8-.8h30.8c.4,0,.8.3.8.8v3.1c0,.4-.3.8-.8.8h-30.8c-.4,0-.8-.3-.8-.8v-3.1ZM130.9,148.1h30.8c3,0,5.4-2.4,5.4-5.4v-3.1c0-3-2.4-5.4-5.4-5.4h-30.8c-3,0-5.4,2.4-5.4,5.4v3.1c0,3,2.4,5.4,5.4,5.4"/>
    <path class="cls-2" d="M70.6,123.9h0l-8,6.7c-1,.8-1.1,2.3-.3,3.2.5.5,1.1.8,1.8.8s1-.2,1.5-.5l8-6.7c1-.8,1.1-2.3.3-3.2-.8-1-2.3-1.1-3.2-.3"/>
    <path class="cls-2" d="M67.1,116.2h0c-.8-1-2.3-1.1-3.2-.3l-8,6.7c-1,.8-1.1,2.3-.3,3.2.5.5,1.1.8,1.8.8s1-.2,1.5-.5l8-6.7c1-.8,1.1-2.3.3-3.3"/>
    <path class="cls-2" d="M93.9,168.1c0,.6-.4,1.2-.8,1.6l-1.8,1.5c-.5.4-1.1.6-1.7.5-.6,0-1.2-.3-1.6-.8l-18-21.4,5.4-4.5,18,21.4c.4.5.6,1.1.5,1.7h0ZM45,119.8c-.2-.2-.2-.4-.2-.6,0-.1,0-.4.3-.5l16.7-14c.1-.1.3-.2.5-.2s.4,0,.6.3l21.5,25.6c.2.2.2.4.2.6,0,.1,0,.4-.3.5l-17.3,14.5-22-26.2h0ZM85.2,145.9l-1.8,1.5-4.5-5.4,3.6-3,3,3.6c.8,1,.7,2.5-.3,3.3M71.1,96.5l22.9,27.3-7.3,2.2-19-22.7,3.4-6.8h0ZM89.4,60.2l43.4,51.7-34,10.3-25.4-30.3,16-31.7h0ZM93.5,50.7c1-.8,2.5-.7,3.3.3l46.4,55.3c.8,1,.7,2.5-.3,3.3l-3.6,3-49.4-58.9,3.6-3h0ZM86.4,150.9h0l1.8-1.5c2.9-2.5,3.3-6.9.9-9.8l-3-3.6,1.2-1c1.1-.9,1.8-2.2,1.9-3.7,0-.4,0-.9,0-1.3l46.9-14.2,1.3,1.5c.5.5,1.1.8,1.8.8s1-.2,1.5-.5l5.3-4.5c2.9-2.5,3.3-6.9.9-9.8l-46.4-55.3c-1.2-1.4-2.9-2.3-4.7-2.5-1.9-.2-3.7.4-5.1,1.6l-5.4,4.5c-.5.4-.8,1-.8,1.6,0,.6.1,1.2.5,1.7l1.3,1.5-22.1,43.8c-1.7-.6-3.7-.3-5.2,1l-16.7,14c-1.1.9-1.8,2.2-1.9,3.7-.1,1.4.3,2.8,1.2,3.9l42.9,51.2c1.2,1.4,2.9,2.3,4.7,2.5.2,0,.4,0,.6,0,1.6,0,3.2-.6,4.5-1.6l1.8-1.5c1.4-1.2,2.3-2.9,2.5-4.7.2-1.8-.4-3.7-1.6-5.1l-10.5-12.5h0Z"/>
    <path class="cls-2" d="M108.6,102.3h0c.5.5,1.1.8,1.8.8s1-.2,1.5-.5c1-.8,1.1-2.3.3-3.2l-4-4.7c-.8-1-2.3-1.1-3.2-.3-1,.8-1.1,2.3-.3,3.2l4,4.7h0Z"/>
    <path class="cls-2" d="M102,90.8c1-.8,1.1-2.3.3-3.2l-4-4.7c-.8-1-2.3-1.1-3.2-.3-1,.8-1.1,2.3-.3,3.2l4,4.7c.5.5,1.1.8,1.8.8.5,0,1-.2,1.5-.5"/>
    <path class="cls-2" d="M134.5,63.5l11.8-9.9c.2-.1.4-.2.5-.2h0c.1,0,.3,0,.5.3l2,2.4c.2.2.2.4.2.6,0,.1,0,.3-.3.5l-11.8,9.9c-.3.3-.8.2-1.1,0l-2-2.4c-.3-.3-.2-.8,0-1.1M130.9,67.5h0l2,2.4c1.1,1.3,2.6,1.9,4.1,1.9s2.5-.4,3.5-1.3l11.8-9.9c1.1-.9,1.8-2.2,1.9-3.7.1-1.4-.3-2.8-1.2-3.9l-2-2.4c-.9-1.1-2.2-1.8-3.7-1.9-1.4-.1-2.8.3-3.9,1.2l-11.8,9.9c-2.3,1.9-2.6,5.3-.7,7.6"/>
    <path class="cls-2" d="M118.7,50h0l5.3-14.5c0-.3.3-.4.4-.4,0,0,.2,0,.3,0s.2,0,.2,0l2.9,1.1c.3,0,.4.3.4.4,0,.1.1.3,0,.6l-5.3,14.5c-.1.4-.6.6-1,.5l-2.9-1c-.4-.1-.6-.6-.5-1M117.5,55.4h0l2.9,1c.6.2,1.2.3,1.8.3,2.2,0,4.3-1.4,5.1-3.5l5.3-14.5c.5-1.4.4-2.8-.2-4.1-.6-1.3-1.7-2.3-3-2.8l-2.9-1c-1.4-.5-2.8-.4-4.1.2-1.3.6-2.3,1.7-2.8,3l-5.3,14.5c-1,2.8.4,5.9,3.2,6.9"/>
    <path class="cls-2" d="M147.2,80.4l15.2-2.7c.4,0,.8.2.9.6l.5,3c0,.4-.2.8-.6.9l-15.2,2.7c-.4,0-.8-.2-.9-.6l-.5-3c0-.4.2-.8.6-.9M142,82.1h0l.5,3c.5,2.6,2.7,4.5,5.3,4.5s.6,0,.9,0l15.2-2.7c2.9-.5,4.9-3.3,4.4-6.2l-.5-3c-.5-2.9-3.3-4.9-6.2-4.4l-15.2,2.7c-2.9.5-4.9,3.3-4.4,6.2"/>
  </g>
</svg>