<?xml version="1.0" encoding="UTF-8"?>
<svg id="Layer_1" data-name="Layer 1" xmlns="http://www.w3.org/2000/svg" xmlns:xlink="http://www.w3.org/1999/xlink" version="1.1" viewBox="0 0 701.5 305">
  <defs>
    <style>
      .cls-1 {
        fill: #12af7e;
        font-family: Helvetica-Bold, Helvetica;
        font-size: 42.3px;
        font-weight: 700;
      }

      .cls-1, .cls-2 {
        isolation: isolate;
      }

      .cls-3 {
        clip-path: url(#clippath);
      }

      .cls-4 {
        fill: none;
      }

      .cls-4, .cls-5 {
        stroke-width: 0px;
      }

      .cls-5 {
        fill: url(#linear-gradient);
      }
    </style>
    <clipPath id="clippath">
      <path class="cls-4" d="M505.7,214.8h17.7v-66.8h-17.7v66.8ZM285.2,150.5c-2,1.6-4.4,4.7-7,9.1v-11.6h-16.7v66.8h17.6v-31.9c0-5.3.7-9.3,2-11.9,2.4-4.6,7.1-6.9,14.1-6.9s1.2,0,2.1,0,1.8.1,2.9.2v-17.9c-.8,0-1.3,0-1.5,0-.2,0-.5,0-.8,0-5.2,0-9.5,1.4-12.7,4.1M203.2,197c-2.8-3.6-4.1-8.8-4.1-15.5s1.4-11.8,4.1-15.4c2.8-3.6,6.7-5.4,11.8-5.4s9,1.8,11.8,5.4c2.7,3.6,4.1,8.8,4.1,15.4s-1.4,11.8-4.1,15.5c-2.7,3.6-6.6,5.4-11.8,5.4s-9-1.8-11.8-5.4M189.4,156.5c-5.6,7.1-8.5,15.4-8.5,25s2.8,18.2,8.5,25.1c5.6,7,14.2,10.4,25.7,10.4s20-3.5,25.7-10.4,8.5-15.3,8.5-25.1-2.8-18-8.5-25-14.2-10.6-25.7-10.6-20,3.5-25.7,10.6M412.2,197c-2.8-3.6-4.1-8.8-4.1-15.5s1.4-11.8,4.1-15.4c2.8-3.6,6.7-5.4,11.8-5.4s9,1.8,11.8,5.4c2.7,3.6,4.1,8.8,4.1,15.4s-1.4,11.8-4.1,15.5c-2.7,3.6-6.7,5.4-11.8,5.4s-9-1.8-11.8-5.4M398.3,156.5c-5.6,7.1-8.5,15.4-8.5,25s2.8,18.2,8.5,25.1c5.6,7,14.2,10.4,25.7,10.4s20-3.5,25.7-10.4c5.6-7,8.5-15.3,8.5-25.1s-2.8-18-8.5-25-14.2-10.6-25.7-10.6-20,3.5-25.7,10.6M558.5,197c-2.8-3.6-4.1-8.8-4.1-15.5s1.4-11.8,4.1-15.4,6.7-5.4,11.8-5.4,9,1.8,11.8,5.4c2.7,3.6,4.1,8.8,4.1,15.4s-1.4,11.8-4.1,15.5c-2.7,3.6-6.7,5.4-11.8,5.4s-9-1.8-11.8-5.4M544.7,156.5c-5.6,7.1-8.5,15.4-8.5,25s2.8,18.2,8.5,25.1c5.6,7,14.2,10.4,25.7,10.4s20-3.5,25.7-10.4c5.6-7,8.5-15.3,8.5-25.1s-2.8-18-8.5-25-14.2-10.6-25.7-10.6-20,3.5-25.7,10.6M121.9,140.2h17c4.3,0,7.6,1,10,3s3.6,5.4,3.6,10-1.2,8.1-3.6,10.3c-2.4,2.2-5.7,3.2-10,3.2h-17v-26.6h0ZM103.2,124.5v90.3h18.7v-32.5h18.8c9.8,0,17.4-2.2,22.6-6.6,5.3-4.4,7.9-11.9,7.9-22.6s-2.7-17-8-21.6-12.4-7-21.4-7h-38.8ZM471,214.8h17.5v-90.3h-17.5v90.3ZM505.7,140.1h17.7v-16.1h-17.7v16.1h0ZM358.5,129.6c-2.4,2.7-3.6,7.6-3.6,14.8v4.3h-9.5v12.3h9.8v144.1h17.3v-144.1h11.5v-12.3h-11.5v-5.6c0-1.3.4-2.5,1.3-3.6s2.5-1.6,4.8-1.5c2.3,0,4,.1,4.9.3v-14.2c-1.5-.1-2.8-.2-3.7-.3-.9,0-1.9,0-3,0-9.7,0-15.8,2-18.3,6M235.5,111.9h17.7V45.2h-17.7v66.8ZM293.4,47.6c-2,1.5-4.1,4-6.4,7.4v-9.7h-16.9v66.6h17.5v-36.1c0-4.1.6-7.5,1.7-10.2,2.2-5,6.2-7.5,12.1-7.5s8,1.7,9.7,5.1c.9,1.9,1.4,4.6,1.4,8.1v77.3h-9v12.4h9v7.3h.4v33.8c0,4.2,1,7.2,2.9,9.2,3,3.2,8.7,4.6,16.9,4.3l8.3-.3v-13c-.6,0-1.1,0-1.7,0s-1.2,0-1.7,0c-3.5,0-5.7-.3-6.4-1-.7-.7-1-2.4-1-5.1v-28h.2v-7.3h10.6v-12.4h-10.6v-81.7c0-8.4-2.2-14.4-6.6-18-4.4-3.6-10-5.4-16.9-5.4s-10,1.4-13.6,4M364.1,61.6c2.5-2.5,5.9-3.8,10.4-3.8s7.6,1.2,10.3,3.6c2.8,2.4,4.3,5.9,4.7,10.5h-30.1c.6-4.4,2.2-7.8,4.7-10.3M350.6,52.7c-6.1,6.2-9.2,15-9.2,26.6s3.4,21.2,10.2,26.7c6.8,5.5,14.6,8.2,23.5,8.2s19.1-3.2,25.1-9.7c3.8-4.1,6-8.1,6.5-12.1h-17.8c-1,2-2.2,3.5-3.6,4.6-2.5,2-5.7,3.1-9.7,3.1s-7-.8-9.6-2.5c-4.4-2.7-6.7-7.4-7-14.1h48.6c0-5.8-.1-10.2-.6-13.2-.8-5.2-2.6-9.8-5.3-13.8-3-4.5-6.9-7.8-11.5-9.9s-9.9-3.1-15.7-3.1c-9.8,0-17.7,3.1-23.9,9.3M170.6,49.9c-4.9,4.4-7.3,9.7-7.3,15.9s1.5,9.2,4.7,12c3.1,2.8,8.5,5.2,16,7,10.5,2.5,16.6,4.2,18.3,5.3,1.6,1,2.5,2.5,2.5,4.5s-1,3.6-3,4.6c-2,1-4.8,1.5-8.2,1.5-5.9,0-9.9-1.2-12.1-3.5-1.2-1.3-2-3.5-2.4-6.6h-17.7c0,6.9,2.5,12.5,7.5,16.9,5,4.4,12.8,6.6,23.3,6.6s17.9-2.1,22.9-6.3c4.9-4.2,7.4-9.6,7.4-16.2s-1.7-9.2-5.1-12.6c-3.5-3.3-8.7-5.8-15.6-7.4-10.4-2.3-16.5-3.9-18.2-4.8-1.7-.9-2.6-2.4-2.6-4.4s.8-3,2.4-4.2c1.6-1.2,4.3-1.8,8.1-1.8s7.9,1.2,9.8,3.5c1,1.3,1.7,3.1,1.9,5.3h17.5c-.8-8.2-3.8-13.9-9-17.2-5.3-3.3-12.1-5-20.4-5s-15.6,2.2-20.5,6.6M421.6,49.9c-4.8,4.4-7.3,9.7-7.3,15.9s1.5,9.2,4.7,12c3.1,2.8,8.5,5.2,16,7,10.5,2.5,16.6,4.2,18.3,5.3,1.6,1,2.5,2.5,2.5,4.5s-1,3.6-3,4.6c-2,1-4.8,1.5-8.2,1.5-5.9,0-9.9-1.2-12.1-3.5-1.2-1.3-2-3.5-2.4-6.6h-17.7c0,6.9,2.5,12.5,7.5,16.9,5,4.4,12.8,6.6,23.3,6.6s17.9-2.1,22.9-6.3,7.4-9.6,7.4-16.2-1.7-9.2-5.2-12.6c-3.5-3.3-8.7-5.8-15.6-7.4-10.4-2.3-16.5-3.9-18.2-4.8-1.7-.9-2.6-2.4-2.6-4.4s.8-3,2.4-4.2c1.6-1.2,4.3-1.8,8.1-1.8s7.9,1.2,9.8,3.5c1,1.3,1.7,3.1,1.9,5.3h17.5c-.8-8.2-3.8-13.9-9-17.2-5.3-3.3-12.1-5-20.4-5s-15.6,2.2-20.5,6.6M491.4,49.9c-4.8,4.4-7.3,9.7-7.3,15.9s1.5,9.2,4.7,12c3.1,2.8,8.5,5.2,16,7,10.5,2.5,16.6,4.2,18.3,5.3,1.6,1,2.5,2.5,2.5,4.5s-1,3.6-3,4.6c-2,1-4.8,1.5-8.2,1.5-5.9,0-9.9-1.2-12.1-3.5-1.2-1.3-2-3.5-2.4-6.6h-17.7c0,6.9,2.5,12.5,7.5,16.9,5,4.4,12.8,6.6,23.3,6.6s17.9-2.1,22.9-6.3,7.4-9.6,7.4-16.2-1.7-9.2-5.2-12.6c-3.5-3.3-8.7-5.8-15.6-7.4-10.4-2.3-16.5-3.9-18.2-4.8-1.7-.9-2.6-2.4-2.6-4.4s.8-3,2.4-4.2c1.6-1.2,4.3-1.8,8.1-1.8s7.9,1.2,9.8,3.5c1,1.3,1.7,3.1,1.9,5.3h17.5c-.8-8.2-3.8-13.9-9-17.2-5.3-3.3-12.1-5-20.4-5s-15.6,2.2-20.5,6.6M18,72.1h22.2c3.9,0,6.9.5,9,1.5,3.8,1.8,5.8,5,5.8,9.7s-2,9.3-5.9,11.3c-2.2,1.1-5.2,1.6-9.1,1.6h-21.9v-24.1h0ZM18,37.3h19.6c4.3,0,7.9.5,10.7,1.4,3.2,1.3,4.9,4.1,4.9,8.3s-1.2,6.4-3.7,7.9c-2.4,1.5-5.6,2.2-9.6,2.2h-21.9v-19.9h0ZM0,21.6v90.3h40.7c4.6,0,8.8-.4,12.8-1.2,3.9-.8,7.3-2.3,10.2-4.5,2.6-1.9,4.7-4.3,6.4-7.1,2.7-4.2,4-9,4-14.4s-1.2-9.6-3.5-13.2c-2.3-3.6-5.8-6.3-10.4-8,3-1.5,5.3-3.3,6.9-5.1,2.8-3.4,4.2-7.8,4.2-13.3s-1.4-9.9-4.1-13.8c-4.6-6.2-12.4-9.5-23.4-9.6H0ZM235.5,37.2h17.7v-16.1h-17.7v16.1ZM130.8,0v81.5c0,4.3-.6,7.7-1.7,10.4-2.2,4.8-6.3,7.2-12.2,7.2s-7.7-1.7-9.3-5.1c-.9-1.9-1.3-4.8-1.3-8.6v-40.2h-17.9v40.2c0,7.6,1,13.4,2.9,17.3,3.4,7.1,10.1,10.7,19.9,10.7s6.4-.5,9-1.4c2.5-.9,5.2-2.6,7.9-5,.9-.8,1.7-1.7,2.3-2.7s1.1-1.6,1.2-1.8v9.4h17V0h-17.7Z"/>
    </clipPath>
    <linearGradient id="linear-gradient" x1="45.6" y1="-452.5" x2="47.9" y2="-452.5" gradientTransform="translate(-10027.9 100656.9) scale(222.1)" gradientUnits="userSpaceOnUse">
      <stop offset="0" stop-color="#1d5d62"/>
      <stop offset=".2" stop-color="#1d5d62"/>
      <stop offset=".3" stop-color="#25655e"/>
      <stop offset=".5" stop-color="#3d7e56"/>
      <stop offset=".7" stop-color="#64a549"/>
      <stop offset=".8" stop-color="#77b943"/>
      <stop offset="1" stop-color="#77b943"/>
    </linearGradient>
  </defs>
  <g class="cls-3">
    <rect class="cls-5" x="0" y="0" width="604.5" height="305"/>
  </g>
  <g class="cls-2">
    <text class="cls-1" transform="translate(136.4 262.1)"><tspan x="0" y="0">Fuelled by</tspan></text>
  </g>
  <g class="cls-2">
    <text class="cls-1" transform="translate(383.8 262.1)"><tspan x="0" y="0">Positive Energy</tspan></text>
  </g>
</svg>