<?xml version="1.0" encoding="UTF-8"?>
<svg id="Layer_1" data-name="Layer 1" xmlns="http://www.w3.org/2000/svg" version="1.1" viewBox="0 0 222.8 224.2">
  <defs>
    <style>
      .cls-1 {
        fill: #414042;
      }

      .cls-1, .cls-2 {
        stroke-width: 0px;
      }

      .cls-2 {
        fill: #fff;
      }
    </style>
  </defs>
  <path class="cls-1" d="M111.4,224.2c61.5,0,111.4-50.2,111.4-112.1S172.9,0,111.4,0,0,50.2,0,112.1s49.9,112.1,111.4,112.1"/>
  <path class="cls-2" d="M101.9,44.7h19c1.3,0,2.3,1,2.3,2.2s-1,2.3-2.3,2.3h-19c-1.3,0-2.3-1-2.3-2.3s1-2.2,2.3-2.2M101.9,53h19c3.4,0,6.2-2.7,6.2-6s-2.8-6-6.2-6h-19c-3.4,0-6.2,2.7-6.2,6s2.8,6,6.2,6"/>
  <path class="cls-2" d="M162.5,149.8H60.3c-1.4,0-2.5-1.1-2.5-2.5s1.1-2.5,2.5-2.5h102.3c1.4,0,2.5,1.1,2.5,2.5s-1.1,2.5-2.5,2.5M57.7,91.7c0-1.4,1.1-2.5,2.5-2.5h102.3c1.4,0,2.5,1.1,2.5,2.5s-1.1,2.5-2.5,2.5H60.3c-1.4,0-2.5-1.1-2.5-2.5M89.7,62.1c.9-.2,1.8-.3,2.6-.5.3,0,.6,0,.9-.1,1.1-.1,2.3-.2,3.4-.2h29.4c1.2,0,2.3,0,3.4.2.3,0,.6,0,.9.1.9.1,1.8.2,2.6.5,12.1,2.5,22,11.5,25.2,23.3h-93.9c3.3-11.9,13.2-20.8,25.3-23.3M90.5,39.5c0-1.7,1.5-3.1,3.2-3.1h35.3c1.8,0,3.2,1.4,3.2,3.1v18.6c-.4,0-.9-.1-1.3-.2-.5,0-1.1-.1-1.7-.2-1.1-.1-2.1-.1-3.2-.1h-29.4c-1,0-2.1,0-3.1.1-.6,0-1.1.1-1.7.2-.4,0-.9,0-1.3.1v-18.6h0ZM90.5,180.9c.3,0,.6,0,.9.1,1.7.2,3.5.4,5.2.4h29.4c1,0,2,0,3-.1.1,0,.2,0,.3,0,.9,0,1.8-.2,2.6-.3,0,0,.1,0,.2,0v5c0,1-.9,1.9-1.9,1.9h-37.9c-1.1,0-1.9-.9-1.9-1.9v-5h0ZM163.4,141.2v-35.1c0-1-.9-1.9-1.9-1.9s-1.9.9-1.9,1.9v35H63.2v-43.2h99.3c3.5,0,6.4-2.8,6.4-6.2s-2.9-6.2-6.4-6.2h-.2c-3.2-13-13.4-23-26.2-26.5v-19.5c0-3.8-3.2-6.9-7.1-6.9h-35.3c-3.9,0-7.1,3.1-7.1,6.9v19.5c-12.8,3.5-23,13.5-26.2,26.5h-.2c-3.5,0-6.4,2.8-6.4,6.2s2.4,5.7,5.5,6.2v43.4c-3.1.4-5.5,3-5.5,6.2s2.9,6.2,6.4,6.2h.2c3.2,13,13.4,23,26.2,26.5v5.8c0,3.1,2.6,5.7,5.8,5.7h37.9c3.2,0,5.8-2.5,5.8-5.7v-5.8c9.8-2.6,18.2-9.1,23-18.2.5-.9.1-2.1-.8-2.5-1-.5-2.1-.1-2.6.8-4.6,8.5-12.6,14.5-22,16.6h0c-1.2.3-2.4.5-3.7.6,0,0-.2,0-.3,0-1.2.1-2.5.2-3.7.2h-29.4c-1.2,0-2.4,0-3.6-.2-.2,0-.5,0-.7,0-1.1-.2-2.2-.3-3.2-.5-11.9-2.7-21.5-11.5-24.7-23.2h98.1c3.5,0,6.4-2.8,6.4-6.2,0-3.2-2.4-5.8-5.5-6.2"/>
  <path class="cls-2" d="M118.6,121.9c.2,0,.3-.1.5-.2.4,1.5.4,3,0,4.4-.7,2.1-2.3,3.7-4.5,4.5h0c-1.5.6-3.7.7-6,.3-1.2-.3-2.2-.8-3.4-2-1.9-1.9-2.4-4.1-1.4-7.3.5-1.7,1.4-3.3,3-4.9,1.3-1.3,2.5-2.8,3.6-4.4.5-.7,1.1-1.6,1.5-2.8.3.4.6.8.9,1.2,1,1.6,1.2,3.4.6,5.5,0,.2-.1.5-.3.8-.5,1.7,0,3.2,1.2,4.3,1.2,1,2.8,1.3,4.4.7M117.1,117c.8-3,.5-5.7-1-8.2-1.1-1.9-2.7-3.3-4.8-4.4-.6-.3-1.4-.3-2,.1-.6.4-.9,1.1-.9,1.7.1,1.3-.3,2.5-1.3,3.9-1.1,1.5-2.2,2.9-3.4,4.1-2,2.1-3.2,4.2-3.8,6.4-1.3,4.5-.5,8.2,2.4,11,1.2,1.2,2.8,2.6,5.4,3.1,1.2.2,2.3.3,3.4.3,1.8,0,3.4-.3,4.7-.8,3.4-1.3,5.8-3.7,6.8-6.9,1.1-3.4.4-7.2-1.8-10.4-.4-.6-1.3-.9-2-.7-.8.2-1.4.9-1.5,1.6,0,.1,0,.4,0,.5h1.5l-1.6.2.7,1.8-1-1.8c-.1-.1-.2-.1-.1-.4.1-.4.3-.8.3-1.1"/>
</svg>