<?xml version="1.0" encoding="UTF-8"?>
<svg id="Layer_1" data-name="Layer 1" xmlns="http://www.w3.org/2000/svg" version="1.1" viewBox="0 0 233.6 235">
  <defs>
    <style>
      .cls-1 {
        fill: #414042;
      }

      .cls-1, .cls-2 {
        stroke-width: 0px;
      }

      .cls-2 {
        fill: #fff;
      }
    </style>
  </defs>
  <path class="cls-1" d="M116.8,235c64.5,0,116.8-52.6,116.8-117.5S181.3,0,116.8,0,0,52.6,0,117.5s52.3,117.5,116.8,117.5"/>
  <path class="cls-2" d="M127.3,161.1h9.3v25.7h-9.3v-25.7ZM106,153.9h9.3v32.9h-9.3v-32.9h0ZM84.7,169h9.3v17.8h-9.3v-17.8ZM148.6,147.1h9.3v39.7h-9.3v-39.7ZM164.4,186.8h-3.2v-41.4c0-.9-.7-1.7-1.7-1.7h-12.6c-.9,0-1.7.8-1.7,1.7v41.4h-5.4v-27.4c0-.9-.7-1.7-1.7-1.7h-12.6c-.9,0-1.6.8-1.6,1.7v27.4h-5.4v-34.6c0-.9-.7-1.7-1.7-1.7h-12.6c-.9,0-1.6.8-1.6,1.7v34.6h-5.5v-19.5c0-.9-.7-1.7-1.6-1.7h-12.6c-.9,0-1.6.8-1.6,1.7v19.5h-3.2c-.9,0-1.6.8-1.6,1.7s.7,1.7,1.6,1.7h86.1c.9,0,1.7-.8,1.7-1.7s-.7-1.7-1.7-1.7h0ZM165.6,134.6c0,.9-.7,1.7-1.7,1.7h-55.5c-.9,0-1.6-.8-1.6-1.7s.7-1.7,1.6-1.7h55.5c.9,0,1.6.8,1.7,1.7h0ZM165.6,124.2c0,.9-.7,1.7-1.7,1.7h-55.5c-.9,0-1.6-.8-1.6-1.7s.7-1.7,1.6-1.7h55.5c.9,0,1.6.8,1.7,1.7h0ZM165.6,113.8c0,.9-.7,1.7-1.7,1.7h-55.5c-.9,0-1.6-.8-1.6-1.7s.7-1.7,1.6-1.7h55.5c.9,0,1.6.8,1.7,1.7h0ZM165.6,103.4c0,.9-.7,1.7-1.7,1.7h-55.5c-.9,0-1.6-.8-1.6-1.7s.7-1.7,1.6-1.7h55.5c.9,0,1.6.8,1.7,1.7h0ZM134.8,84c0-.9.7-1.7,1.7-1.7h27.4c.9,0,1.7.8,1.7,1.7s-.7,1.7-1.7,1.7h-27.4c-.9,0-1.7-.8-1.7-1.7h0ZM122.7,84c0-.9.7-1.7,1.6-1.7h5.2c.9,0,1.7.8,1.7,1.7s-.7,1.7-1.7,1.7h-5.2c-.9,0-1.7-.8-1.7-1.7h0ZM134.8,75.5c0-.9.7-1.7,1.7-1.7h27.4c.9,0,1.7.8,1.7,1.7s-.7,1.7-1.7,1.7h-27.4c-.9,0-1.7-.8-1.7-1.7h0ZM122.7,75.5c0-.9.7-1.7,1.6-1.7h5.2c.9,0,1.7.8,1.7,1.7s-.7,1.7-1.7,1.7h-5.2c-.9,0-1.7-.8-1.7-1.7h0ZM134.8,67.1c0-.9.7-1.7,1.7-1.7h27.4c.9,0,1.7.8,1.7,1.7s-.7,1.7-1.7,1.7h-27.4c-.9,0-1.7-.8-1.7-1.7h0ZM122.7,67.1c0-.9.7-1.7,1.6-1.7h5.2c.9,0,1.7.8,1.7,1.7s-.7,1.7-1.7,1.7h-5.2c-.9,0-1.7-.8-1.7-1.7h0ZM134.8,58.6c0-.9.7-1.7,1.7-1.7h27.4c.9,0,1.7.8,1.7,1.7s-.7,1.7-1.7,1.7h-27.4c-.9,0-1.7-.8-1.7-1.7h0ZM122.7,58.6c0-.9.7-1.7,1.6-1.7h5.2c.9,0,1.7.8,1.7,1.7s-.7,1.7-1.7,1.7h-5.2c-.9,0-1.7-.8-1.7-1.7h0ZM103,54.6c8.7,3.9,12.8,14.1,9.3,23.1l-9.3-9.6v-13.5h0ZM111.7,81.9c.6.7,1.7.7,2.3,0,0-.1.2-.2.3-.4,5.6-10.3,2-23.3-8.1-29-1.4-.8-2.8-1.4-4.4-1.9-.9-.3-1.8.3-2,1.2,0,.1,0,.3,0,.5v16.6c0,.4.2.9.5,1.2l11.5,11.8h0ZM94.1,53.7v17.6c0,.5.2.9.5,1.2l12.1,12.5c-3,2.7-7,4.1-11,4-9.5,0-17.2-8-17.1-17.8,0-9,6.7-16.6,15.5-17.5h0ZM95.7,92.4c5.5.1,10.7-2.1,14.5-6.2h0s0-.1,0-.1c0,0,0,0,0-.1s0,0,0-.1c0,0,0-.1,0-.1s0-.1,0-.1c0,0,0-.1,0-.1,0,0,0-.1,0-.2s0-.1,0-.2,0-.1,0-.1c0,0,0-.1,0-.2,0,0,0-.1,0-.1,0,0,0-.1,0-.1,0,0,0-.1,0-.1,0,0,0,0,0-.1,0,0,0,0-.1-.1,0,0,0,0,0-.1l-12.8-13.2v-18.7c0-.9-.7-1.7-1.6-1.7-11.3,0-20.5,9.4-20.5,21.1s9.2,21.1,20.5,21.1h0ZM173.8,195.4c0,1.8-1.5,3.3-3.2,3.3h-98.5c-1.8,0-3.2-1.5-3.2-3.3V47.5c0-1.8,1.5-3.3,3.2-3.3h98.5c1.8,0,3.2,1.5,3.2,3.3v147.9ZM63,190.8c-1.8,0-3.2-1.5-3.2-3.3V39.6c0-1.8,1.5-3.3,3.2-3.3h98.5c1.8,0,3.2,1.5,3.2,3.3v1.2h-92.7c-3.6,0-6.5,3-6.5,6.7v143.3h-2.5ZM170.6,40.8h-2.5v-1.2c0-3.7-2.9-6.7-6.5-6.7H63c-3.6,0-6.5,3-6.5,6.7v147.9c0,3.7,2.9,6.7,6.5,6.7h2.5v1.2c0,3.7,2.9,6.7,6.5,6.7h98.5c3.6,0,6.5-3,6.5-6.7V47.5c0-3.7-2.9-6.7-6.5-6.7"/>
  <path class="cls-2" d="M97.7,110.5h-5.2c0,1.8-.4,3.5-1.2,4.9-.8,1.4-1.7,2.6-2.9,3.5-1.2.9-2.6,1.6-4.1,2.1-1.5.4-3.1.6-4.7.5v.2c.8.8,1.6,1.7,2.4,2.6s1.5,1.8,2.3,2.7l9.7,12.5v.4h-4.4l-10.7-13.9c-.4-.5-.8-1-1.3-1.6-.5-.6-.9-1.1-1.4-1.6-.5-.6-1-1.1-1.5-1.7l1.2-3c1.6.4,3.2.5,4.7.3,1.5-.1,2.9-.5,4.1-1.1,1.2-.6,2.2-1.5,2.9-2.6s1.1-2.5,1.2-4.1h-13.7v-3.3h13.3c-.5-1.6-1.4-2.7-2.6-3.5-1.2-.8-2.6-1.2-4-1.2h-6.6v-3.4h24.5l-1.7,3.4h-8.8v.2c.6.3,1.2.9,1.8,1.6.6.8,1.1,1.7,1.4,2.9h7.2l-1.7,3.3h0Z"/>
</svg>